<svg width="38" height="43" viewBox="0 0 38 43" fill="none" xmlns="http://www.w3.org/2000/svg">
<path d="M37.7778 22.2221C37.7778 32.9998 29.305 42.2775 18.8355 42.222C8.31193 42.1664 -0.106907 32.3331 0.00102632 21.4999C0.162927 6.55552 5.01996 6.22219 12.4674 6.49996C13.3308 6.55552 14.5721 7.83329 14.5721 8.72217V9.72217C14.5721 10.3333 14.0324 10.8888 13.4388 10.8333L11.9817 10.7222C10.7404 10.6666 9.71505 11.6666 9.71505 12.9444L9.76904 13.2777C9.823 13.9999 10.4166 14.611 11.1182 14.6666L15.6514 15.1666C17.8101 15.4444 20.0227 15.4444 22.2354 15.1666L26.7686 14.6666C27.4701 14.611 28.0638 13.9999 28.1178 13.2777L28.1717 12.9444C28.1717 11.6666 27.1463 10.6666 25.9051 10.7222L24.448 10.8333C23.8543 10.8888 23.3147 10.3888 23.3147 9.72217V8.72217C23.3147 7.83329 24.5559 6.49996 25.4194 6.49996C32.8668 6.27774 37.7778 6.61107 37.7778 22.2221ZM20.5084 12.0555L21.0481 1.33333C21.0481 0.611107 20.4545 0 19.7529 0H17.972C17.2704 0 16.6768 0.611107 16.6768 1.33333L17.2164 12.0555C17.2164 12.7777 17.8101 13.3888 18.5116 13.3888H19.2132C19.9688 13.3333 20.5084 12.7777 20.5084 12.0555Z" fill="#66645D"/>
</svg>
