<svg width="52" height="52" viewBox="0 0 52 52" fill="none" xmlns="http://www.w3.org/2000/svg">
<path d="M24.7867 0.52L0.52 24.7867C-0.173333 25.48 -0.173333 26.52 0.52 27.2133L24.7867 51.48C25.48 52.1733 26.52 52.1733 27.2133 51.48L51.48 27.2133C52.1733 26.52 52.1733 25.48 51.48 24.7867L27.2133 0.52C26.52 -0.173333 25.48 -0.173333 24.7867 0.52ZM27.04 44.1133H24.96C24.0933 44.1133 23.2267 43.7667 22.5333 43.16L21.9267 42.5533C21.06 41.6867 20.6267 40.3867 20.8 39.1733L21.06 37.0067C21.2333 35.9667 21.58 34.9267 22.1867 34.06C22.7933 33.1933 23.5733 32.5 24.5267 31.98C24.96 31.72 25.48 31.6333 26 31.6333C26.52 31.6333 27.04 31.72 27.4733 31.98C29.38 33.02 30.5933 34.84 30.8533 37.0067L31.1133 39.1733C31.2867 40.3867 30.8533 41.6867 29.9867 42.5533L29.4667 43.16C28.7733 43.7667 27.9067 44.1133 27.04 44.1133ZM36.66 28.2533C34.4933 26.1733 32.8467 23.5733 31.98 20.6267L30.7667 16.4667C30.5067 15.6 29.7267 14.9933 28.7733 14.9933H23.14C22.1867 14.9933 21.4067 15.6 21.1467 16.4667L19.9333 20.6267C19.0667 23.4867 17.5067 26.1733 15.2533 28.2533L11.3533 31.98L5.98 26.6067C5.63333 26.26 5.63333 25.74 5.98 25.3933L25.3933 5.98C25.74 5.63333 26.26 5.63333 26.6067 5.98L45.9333 25.3933C46.28 25.74 46.28 26.26 45.9333 26.6067L40.56 31.98L36.66 28.2533Z" fill="#E2DED3"/>
</svg>
