<svg width="43" height="43" viewBox="0 0 43 43" fill="none" xmlns="http://www.w3.org/2000/svg">
<path d="M22.2505 0.725095L27.7848 12.4972C27.9476 12.8953 28.3275 13.1797 28.7615 13.2365L41.1324 15.1133C42.1633 15.2839 42.5973 16.6488 41.8377 17.3881L32.8851 26.5442C32.5596 26.8285 32.451 27.2835 32.5053 27.7384L34.6214 40.648C34.7842 41.7285 33.699 42.5816 32.7766 42.0697L21.708 35.9846C21.3282 35.7571 20.8941 35.7571 20.5143 35.9846L9.44561 42.0697C8.52323 42.5816 7.38383 41.7285 7.60086 40.648L9.71691 27.7384C9.77116 27.2835 9.66264 26.8854 9.33709 26.5442L0.384506 17.3881C-0.375108 16.5919 0.0589834 15.2839 1.08989 15.1133L13.4607 13.2365C13.8948 13.1797 14.2203 12.8953 14.4374 12.4972L19.9717 0.725095C20.4058 -0.241698 21.7622 -0.241698 22.2505 0.725095Z" fill="#66645D"/>
</svg>
