<svg width="25" height="46" viewBox="0 0 25 46" fill="none" xmlns="http://www.w3.org/2000/svg">
<path d="M12.5 10.8611V0L25 10.8611L18.75 15.9722L12.5 10.8611Z" fill="url(#paint0_linear_503_8578)"/>
<path d="M12.5 35.1389V46L25 35.1389L18.75 30.0278L12.5 35.1389Z" fill="url(#paint1_linear_503_8578)"/>
<path d="M12.5 10.8611V0L0 10.8611L6.25 15.9722L12.5 10.8611Z" fill="url(#paint2_linear_503_8578)"/>
<path d="M12.5 35.1389V46L0 35.1389L6.25 30.0278L12.5 35.1389Z" fill="url(#paint3_linear_503_8578)"/>
<path d="M25 10.8611L18.75 15.9722V30.0278L25 35.1389V10.8611Z" fill="url(#paint4_linear_503_8578)"/>
<path d="M0 10.8611L6.25 15.9722V30.0278L0 35.1389V10.8611Z" fill="url(#paint5_linear_503_8578)"/>
<path d="M18.75 15.9722L12.5 10.8611L6.25 15.9722V30.0278L12.5 35.1389L18.75 30.0278V15.9722Z" fill="url(#paint6_linear_503_8578)"/>
<path d="M18.5 16.0906V29.908L12.5 34.8152L6.5 29.908V16.0906L12.5 11.1833L18.5 16.0906Z" stroke="white" stroke-opacity="0.3" style="mix-blend-mode:overlay" stroke-width="0.5"/>
<defs>
<linearGradient id="paint0_linear_503_8578" x1="12.5" y1="0.638889" x2="22.1498" y2="13.8549" gradientUnits="userSpaceOnUse">
<stop stop-color="#0F2810"/>
<stop offset="1" stop-color="#173515"/>
</linearGradient>
<linearGradient id="paint1_linear_503_8578" x1="13.125" y1="45.3611" x2="18.9704" y2="30.1123" gradientUnits="userSpaceOnUse">
<stop stop-color="#32952C"/>
<stop offset="1" stop-color="#30962D"/>
</linearGradient>
<linearGradient id="paint2_linear_503_8578" x1="12.5" y1="0" x2="4.09555" y2="15.1786" gradientUnits="userSpaceOnUse">
<stop stop-color="#91FE55"/>
<stop offset="1" stop-color="#A7FE59"/>
</linearGradient>
<linearGradient id="paint3_linear_503_8578" x1="12.5" y1="45.3611" x2="6.01226" y2="30.129" gradientUnits="userSpaceOnUse">
<stop stop-color="#163114"/>
<stop offset="1" stop-color="#163013"/>
</linearGradient>
<linearGradient id="paint4_linear_503_8578" x1="21.875" y1="10.8611" x2="21.875" y2="35.1389" gradientUnits="userSpaceOnUse">
<stop stop-color="#1B511B"/>
<stop offset="1" stop-color="#195119"/>
</linearGradient>
<linearGradient id="paint5_linear_503_8578" x1="0" y1="10.8611" x2="6.50486" y2="31.2241" gradientUnits="userSpaceOnUse">
<stop stop-color="#287D26"/>
<stop offset="1" stop-color="#2A7F26"/>
</linearGradient>
<linearGradient id="paint6_linear_503_8578" x1="12.5" y1="10.8611" x2="12.5" y2="35.1389" gradientUnits="userSpaceOnUse">
<stop stop-color="#2DB42C"/>
<stop offset="1" stop-color="#29A028"/>
</linearGradient>
</defs>
</svg>
