<svg width="47" height="43" viewBox="0 0 47 43" fill="none" xmlns="http://www.w3.org/2000/svg">
<path d="M46.6667 19.3994C46.6667 20.6547 45.6534 21.6817 44.415 21.6817H40.4745V37.6577C40.4745 40.1682 38.4479 42.2222 35.971 42.2222H10.6956C8.21874 42.2222 6.1922 40.1682 6.1922 37.6577V21.6817H2.25171C1.01327 21.6817 0 20.6547 0 19.3994C0 18.1441 1.01327 17.1171 2.25171 17.1171H44.4713C45.6534 17.1171 46.6667 18.1441 46.6667 19.3994ZM37.491 7.98799C39.4612 7.98799 41.0374 9.58559 41.0374 11.5826V13.6937H5.57296V11.5826C5.57296 9.58559 7.14919 7.98799 9.11943 7.98799H15.7057C15.7057 3.59459 19.2521 0 23.5866 0C27.9212 0 31.4676 3.59459 31.4676 7.98799H37.491ZM20.2091 7.98799H26.9642C26.9642 6.1051 25.4443 4.56456 23.5866 4.56456C21.729 4.56456 20.2091 6.1051 20.2091 7.98799Z" fill="#66645D"/>
</svg>
