<svg width="45" height="39" viewBox="0 0 45 39" fill="none" xmlns="http://www.w3.org/2000/svg">
<path d="M43.7138 9.07522L32.6859 0.220784C32.313 -0.11546 31.727 -0.0594193 31.4073 0.332866C30.2353 1.73388 27.1986 4.648 22.244 4.648C17.2895 4.648 14.2528 1.73388 13.0808 0.332866C12.7611 -0.0594193 12.2283 -0.11546 11.8022 0.220784L0.720979 9.07522C-0.131419 9.74771 -0.237969 10.9806 0.454605 11.8212L5.08953 17.4253C5.569 17.9857 6.31485 18.0978 6.95415 17.7615L9.88427 15.9122L8.44584 36.8154C8.39256 37.9362 9.24496 38.8889 10.3105 38.8889H34.1776C35.2431 38.8889 36.0955 37.9362 36.0422 36.8154L34.6038 15.9122L37.5339 17.7615C38.12 18.1538 38.9191 17.9857 39.3985 17.4253L44.0335 11.8212C44.6728 10.9806 44.5662 9.74771 43.7138 9.07522ZM22.244 24.8787C20.7523 24.8787 19.5803 23.6458 19.5803 22.0767C19.5803 20.5075 20.7523 19.2746 22.244 19.2746C23.7357 19.2746 24.9078 20.5075 24.9078 22.0767C24.9078 23.6458 23.7357 24.8787 22.244 24.8787ZM22.244 15.3518C20.7523 15.3518 19.5803 14.1189 19.5803 12.5497C19.5803 10.9806 20.7523 9.74771 22.244 9.74771C23.7357 9.74771 24.9078 10.9806 24.9078 12.5497C24.9078 14.1189 23.7357 15.3518 22.244 15.3518Z" fill="#66645D"/>
</svg>
