<svg width="55" height="39" viewBox="0 0 55 39" fill="none" xmlns="http://www.w3.org/2000/svg">
<path d="M38.83 0H16.17C11.77 0 7.7 1.78706 4.73 4.69104C1.87 7.59501 0 11.6159 0 15.9719C0 24.7955 7.26 31.9437 16.17 31.9437H17.49C16.94 33.9542 16.28 35.9646 15.4 37.8634C15.07 38.5335 15.84 39.3154 16.5 38.8686C19.91 36.9698 22.99 34.6243 25.74 31.9437H38.83C47.74 31.9437 55 24.7955 55 15.9719C55 7.14825 47.74 0 38.83 0ZM17.27 19.3226C15.29 19.3226 13.75 17.7589 13.75 15.8602C13.75 13.9614 15.4 12.286 17.27 12.286C19.25 12.286 20.79 13.8497 20.79 15.7485C20.79 17.6472 19.25 19.3226 17.27 19.3226ZM27.39 19.3226C25.41 19.3226 23.87 17.7589 23.87 15.8602C23.87 13.9614 25.52 12.3977 27.39 12.3977C29.37 12.3977 30.91 13.9614 30.91 15.8602C30.91 17.7589 29.37 19.3226 27.39 19.3226ZM37.51 19.3226C35.53 19.3226 33.99 17.7589 33.99 15.8602C33.99 13.9614 35.53 12.3977 37.51 12.3977C39.49 12.3977 41.03 13.9614 41.03 15.8602C41.03 17.7589 39.49 19.3226 37.51 19.3226Z" fill="#E2DED3"/>
</svg>
