<svg width="48" height="48" viewBox="0 0 48 48" fill="none" xmlns="http://www.w3.org/2000/svg">
<g filter="url(#filter0_dddf_503_2089)">
<path fill-rule="evenodd" clip-rule="evenodd" d="M23.5286 32.3529C28.4017 32.3529 32.3521 28.4025 32.3521 23.5294C32.3521 18.6563 28.4017 14.7059 23.5286 14.7059C18.6555 14.7059 14.7051 18.6563 14.7051 23.5294C14.7051 28.4025 18.6555 32.3529 23.5286 32.3529ZM23.5286 28.8235C20.6047 28.8235 18.2345 26.4533 18.2345 23.5294C18.2345 20.6056 20.6047 18.2353 23.5286 18.2353C26.4525 18.2353 28.8227 20.6056 28.8227 23.5294C28.8227 26.4533 26.4525 28.8235 23.5286 28.8235ZM23.5287 26.4706C25.153 26.4706 26.4698 25.1538 26.4698 23.5294C26.4698 21.9051 25.153 20.5883 23.5287 20.5883C21.9043 20.5883 20.5875 21.9051 20.5875 23.5294C20.5875 25.1538 21.9043 26.4706 23.5287 26.4706Z" fill="#FFF381"/>
</g>
<defs>
<filter id="filter0_dddf_503_2089" x="-0.000803947" y="4.76837e-06" width="47.0582" height="47.0588" filterUnits="userSpaceOnUse" color-interpolation-filters="sRGB">
<feFlood flood-opacity="0" result="BackgroundImageFix"/>
<feColorMatrix in="SourceAlpha" type="matrix" values="0 0 0 0 0 0 0 0 0 0 0 0 0 0 0 0 0 0 127 0" result="hardAlpha"/>
<feOffset/>
<feGaussianBlur stdDeviation="4.41177"/>
<feColorMatrix type="matrix" values="0 0 0 0 1 0 0 0 0 0.72 0 0 0 0 0 0 0 0 1 0"/>
<feBlend mode="normal" in2="BackgroundImageFix" result="effect1_dropShadow_503_2089"/>
<feColorMatrix in="SourceAlpha" type="matrix" values="0 0 0 0 0 0 0 0 0 0 0 0 0 0 0 0 0 0 127 0" result="hardAlpha"/>
<feOffset/>
<feGaussianBlur stdDeviation="5.88235"/>
<feColorMatrix type="matrix" values="0 0 0 0 1 0 0 0 0 0.858833 0 0 0 0 0.495833 0 0 0 1 0"/>
<feBlend mode="normal" in2="effect1_dropShadow_503_2089" result="effect2_dropShadow_503_2089"/>
<feColorMatrix in="SourceAlpha" type="matrix" values="0 0 0 0 0 0 0 0 0 0 0 0 0 0 0 0 0 0 127 0" result="hardAlpha"/>
<feOffset/>
<feGaussianBlur stdDeviation="7.35294"/>
<feColorMatrix type="matrix" values="0 0 0 0 1 0 0 0 0 0.724667 0 0 0 0 0.0166667 0 0 0 1 0"/>
<feBlend mode="normal" in2="effect2_dropShadow_503_2089" result="effect3_dropShadow_503_2089"/>
<feBlend mode="normal" in="SourceGraphic" in2="effect3_dropShadow_503_2089" result="shape"/>
<feGaussianBlur stdDeviation="0.367647" result="effect4_foregroundBlur_503_2089"/>
</filter>
</defs>
</svg>
